<svg class="svg-icon" style="width:1em;height:1em;vertical-align:middle;fill:currentColor;overflow:hidden" viewBox="0 0 1024 1024" xmlns="http://www.w3.org/2000/svg"><path d="M340.07 307.354h412.468a84.89 84.89 0 0 1 81.305 109.414L794.83 546.253c-10.855 35.84-43.879 60.416-81.306 60.416H379.802l3.584 27.136c1.843 14.029 13.824 24.576 28.057 24.576h368.128a28.314 28.314 0 1 1 0 56.576H411.443a84.89 84.89 0 0 1-84.173-73.728l-50.534-380.826a28.314 28.314 0 0 0-28.058-24.576h-41.164a28.314 28.314 0 1 1 0-56.627h41.164c42.599 0 78.592 31.54 84.173 73.728l7.22 54.426zm7.527 56.627 24.678 186.06h341.248c12.493 0 23.501-8.191 27.085-20.121l39.014-129.485a28.314 28.314 0 0 0-27.084-36.454H347.546zm23.347 434.176c0-25.754 21.402-46.643 47.872-46.643 26.42 0 47.872 20.89 47.872 46.592a47.258 47.258 0 0 1-47.872 46.694 47.258 47.258 0 0 1-47.872-46.643zm289.997 0c0-25.754 21.453-46.643 47.872-46.643 26.47 0 47.872 20.89 47.872 46.592a47.258 47.258 0 0 1-47.872 46.694 47.258 47.258 0 0 1-47.872-46.643z"/></svg>