<svg width="48" height="48" viewBox="0 0 48 48" fill="none" xmlns="http://www.w3.org/2000/svg"><path d="M24 3C14.1 3 6 11.1 6 21v10.5c0 2.55 1.95 4.5 4.5 4.5h6c.9 0 1.5-.6 1.5-1.5v-12c0-.9-.6-1.5-1.5-1.5H9c0-8.25 6.75-15 15-15s15 6.75 15 15h-7.5c-.9 0-1.5.6-1.5 1.5v12c0 .9.6 1.5 1.5 1.5h6c.45 0 1.05-.15 1.5-.3v1.8c0 2.55-1.95 4.5-4.5 4.5H24c-.9 0-1.5.6-1.5 1.5S23.1 45 24 45h10.5c4.2 0 7.5-3.3 7.5-7.5V21c0-9.9-8.1-18-18-18Zm-9 21v9h-4.5c-.9 0-1.5-.6-1.5-1.5V24h6Zm22.5 9H33v-9h6v7.5c0 .9-.6 1.5-1.5 1.5Z" fill="#2A27E9"/></svg>