<svg width="127" height="38" viewBox="0 0 127 38" fill="none" xmlns="http://www.w3.org/2000/svg"><rect y="5.5" width="47" height="31" rx="5" fill="#2A27E9"/><path d="M14.36 32.884c-1.344 0-2.57-.277-3.68-.832a5.97 5.97 0 0 1-2.528-2.4l.416-.672v3.52H5.112V8.276h3.616v10.496l-.576-.832a6.675 6.675 0 0 1 2.56-2.304c1.067-.555 2.283-.832 3.648-.832 1.643 0 3.115.395 4.416 1.184a8.371 8.371 0 0 1 3.104 3.232c.768 1.365 1.152 2.901 1.152 4.608 0 1.707-.384 3.243-1.152 4.608a8.69 8.69 0 0 1-3.072 3.264c-1.301.79-2.784 1.184-4.448 1.184Zm-.352-3.36c1.024 0 1.93-.245 2.72-.736a5.132 5.132 0 0 0 1.856-2.016c.47-.875.704-1.856.704-2.944 0-1.088-.235-2.059-.704-2.912a5.132 5.132 0 0 0-1.856-2.016c-.79-.49-1.696-.736-2.72-.736-1.003 0-1.91.245-2.72.736A5.372 5.372 0 0 0 9.4 20.916c-.448.853-.672 1.824-.672 2.912 0 1.088.224 2.07.672 2.944a5.372 5.372 0 0 0 1.888 2.016c.81.49 1.717.736 2.72.736Zm19.39 3.36c-1.729 0-3.265-.395-4.609-1.184a8.608 8.608 0 0 1-3.104-3.264c-.746-1.387-1.12-2.933-1.12-4.64 0-1.75.374-3.296 1.12-4.64.768-1.344 1.793-2.4 3.073-3.168 1.28-.79 2.73-1.184 4.351-1.184 1.302 0 2.465.224 3.488.672a7.39 7.39 0 0 1 2.593 1.856 7.828 7.828 0 0 1 1.6 2.656 8.87 8.87 0 0 1 .575 3.2c0 .277-.01.565-.032.864a4.855 4.855 0 0 1-.127.832H27.413v-2.88h11.744l-1.727 1.312c.213-1.045.138-1.973-.224-2.784a4.128 4.128 0 0 0-1.6-1.952c-.705-.49-1.537-.736-2.497-.736s-1.813.245-2.56.736c-.746.47-1.322 1.152-1.727 2.048-.406.875-.566 1.941-.48 3.2-.107 1.173.053 2.197.48 3.072.448.875 1.066 1.557 1.855 2.048.811.49 1.729.736 2.752.736 1.046 0 1.931-.235 2.657-.704a5.143 5.143 0 0 0 1.76-1.824l2.944 1.44c-.342.81-.875 1.547-1.6 2.208-.704.64-1.558 1.152-2.56 1.536-.982.363-2.06.544-3.233.544Z" fill="#fff"/><path d="M58.512 32.884c-1.77 0-3.328-.437-4.672-1.312-1.323-.875-2.25-2.048-2.784-3.52l2.784-1.312c.47.981 1.11 1.76 1.92 2.336a4.73 4.73 0 0 0 2.752.864c.853 0 1.547-.192 2.08-.576.533-.384.8-.907.8-1.568 0-.427-.117-.768-.352-1.024a2.609 2.609 0 0 0-.896-.672 4.822 4.822 0 0 0-1.056-.384l-2.72-.768c-1.493-.427-2.613-1.067-3.36-1.92a4.624 4.624 0 0 1-1.088-3.04c0-1.045.267-1.952.8-2.72.533-.79 1.27-1.397 2.208-1.824.939-.427 1.995-.64 3.168-.64 1.579 0 2.987.395 4.224 1.184 1.237.768 2.112 1.845 2.624 3.232l-2.784 1.312a4.25 4.25 0 0 0-1.632-1.984c-.725-.49-1.547-.736-2.464-.736-.79 0-1.419.192-1.888.576a1.73 1.73 0 0 0-.704 1.44c0 .405.107.747.32 1.024.213.256.49.47.832.64.341.15.693.277 1.056.384l2.816.832c1.43.405 2.528 1.045 3.296 1.92.768.853 1.152 1.877 1.152 3.072 0 1.024-.277 1.93-.832 2.72-.533.768-1.28 1.376-2.24 1.824-.96.427-2.08.64-3.36.64Zm16.183-.192c-1.813 0-3.221-.512-4.224-1.536-1.003-1.024-1.504-2.464-1.504-4.32v-8.384h-3.04v-3.264h.48c.81 0 1.44-.235 1.888-.704.448-.47.672-1.11.672-1.92V11.22h3.616v3.968h3.936v3.264h-3.936v8.224c0 .597.096 1.11.288 1.536.192.405.501.725.928.96.427.213.981.32 1.664.32.17 0 .363-.01.576-.032.213-.021.416-.043.608-.064V32.5c-.299.043-.63.085-.992.128a8.324 8.324 0 0 1-.96.064Zm12.24.192c-1.664 0-3.19-.395-4.576-1.184a8.945 8.945 0 0 1-3.264-3.232c-.81-1.365-1.216-2.912-1.216-4.64 0-1.75.406-3.296 1.216-4.64a8.7 8.7 0 0 1 3.264-3.2c1.366-.79 2.89-1.184 4.576-1.184 1.707 0 3.232.395 4.576 1.184a8.467 8.467 0 0 1 3.232 3.2c.81 1.344 1.216 2.89 1.216 4.64 0 1.75-.405 3.307-1.216 4.672a8.947 8.947 0 0 1-3.264 3.232c-1.365.768-2.88 1.152-4.544 1.152Zm0-3.36c1.024 0 1.93-.245 2.72-.736a5.132 5.132 0 0 0 1.856-2.016c.47-.875.704-1.856.704-2.944 0-1.088-.234-2.059-.704-2.912a5.132 5.132 0 0 0-1.856-2.016c-.79-.49-1.696-.736-2.72-.736-1.002 0-1.91.245-2.72.736a5.37 5.37 0 0 0-1.888 2.016c-.448.853-.672 1.824-.672 2.912 0 1.088.224 2.07.672 2.944a5.37 5.37 0 0 0 1.888 2.016c.81.49 1.718.736 2.72.736ZM98.21 32.5V15.188h3.456v3.488l-.321-.512c.385-1.13 1.003-1.941 1.857-2.432.853-.512 1.877-.768 3.072-.768h1.056v3.296h-1.504c-1.195 0-2.166.373-2.912 1.12-.726.725-1.088 1.77-1.088 3.136V32.5H98.21Zm18.441.384c-1.728 0-3.264-.395-4.608-1.184a8.615 8.615 0 0 1-3.104-3.264c-.746-1.387-1.12-2.933-1.12-4.64 0-1.75.374-3.296 1.12-4.64.768-1.344 1.792-2.4 3.072-3.168 1.28-.79 2.731-1.184 4.352-1.184 1.302 0 2.464.224 3.488.672a7.39 7.39 0 0 1 2.592 1.856 7.817 7.817 0 0 1 1.6 2.656 8.87 8.87 0 0 1 .576 3.2c0 .277-.01.565-.032.864a4.826 4.826 0 0 1-.128.832h-13.792v-2.88h11.744l-1.728 1.312c.214-1.045.139-1.973-.224-2.784-.341-.832-.874-1.483-1.6-1.952-.704-.49-1.536-.736-2.496-.736s-1.813.245-2.56.736c-.746.47-1.322 1.152-1.728 2.048-.405.875-.565 1.941-.48 3.2-.106 1.173.054 2.197.48 3.072.448.875 1.067 1.557 1.856 2.048.811.49 1.728.736 2.752.736 1.046 0 1.931-.235 2.656-.704a5.135 5.135 0 0 0 1.76-1.824l2.944 1.44c-.341.81-.874 1.547-1.6 2.208-.704.64-1.557 1.152-2.56 1.536-.981.363-2.058.544-3.232.544Z" fill="#2A27E9"/></svg>