<svg class="svg-icon" style="width:1em;height:1em;vertical-align:middle;fill:currentColor;overflow:hidden" viewBox="0 0 1024 1024" xmlns="http://www.w3.org/2000/svg"><path d="M91.948 260.164c-15.413 0-27.986-12.543-27.986-27.98 0-15.443 12.573-27.986 27.986-27.986h839.5c15.466 0 27.986 12.543 27.986 27.986 0 15.437-12.514 27.98-27.986 27.98h-839.5zm0 279.836c-15.413 0-27.986-12.568-27.986-27.982 0-15.441 12.573-27.985 27.986-27.985h839.5c15.466 0 27.986 12.544 27.986 27.985 0 15.414-12.514 27.982-27.986 27.982h-839.5zm0 279.836c-15.413 0-27.986-12.567-27.986-27.98 0-15.414 12.573-27.987 27.986-27.987h839.5c15.466 0 27.986 12.572 27.986 27.987 0 15.413-12.514 27.98-27.986 27.98h-839.5zm0 0"/></svg>