<svg width="32" height="32" viewBox="0 0 32 32" fill="none" xmlns="http://www.w3.org/2000/svg"><path d="M24.29 19.29 21 22.59l-1.29-1.3a1.004 1.004 0 1 0-1.42 1.42l2 2a.999.999 0 0 0 1.42 0l4-4a1.005 1.005 0 0 0-1.42-1.42Z" fill="#0B1A48"/><path d="M22 14a8 8 0 1 0 0 16.001A8 8 0 0 0 22 14Zm0 14a6 6 0 1 1 0-12 6 6 0 0 1 0 12Z" fill="#0B1A48"/><path d="M26 2H6a4 4 0 0 0-4 4v20a4 4 0 0 0 4 4h8a1 1 0 0 0 0-2H6a2 2 0 0 1-2-2V6a2 2 0 0 1 2-2h5v7a1 1 0 0 0 .62.92 1 1 0 0 0 1.09-.21l1.29-1.3 1.29 1.3a1.002 1.002 0 0 0 1.42 0l1.29-1.3 1.29 1.3A1 1 0 0 0 20 12a.84.84 0 0 0 .38-.08A1 1 0 0 0 21 11V4h5a2 2 0 0 1 2 2v8a1 1 0 0 0 2 0V6a4 4 0 0 0-4-4Zm-7 6.59-.29-.3a1 1 0 0 0-1.42 0L16 9.59l-1.29-1.3a1 1 0 0 0-1.42 0l-.29.3V4h6v4.59Z" fill="#0B1A48"/></svg>