<svg width="33" height="32" viewBox="0 0 33 32" fill="none" xmlns="http://www.w3.org/2000/svg"><path d="m30.3 17.5-3-5c-.2-.3-.5-.5-.9-.5h-6V9c0-.6-.4-1-1-1h-3.7c-1.1-2.4-3.5-4-6.3-4-3.9 0-7 3.1-7 7s3.1 7 7 7 7-3.1 7-7c0-.3 0-.7-.1-1h2.1v14h-4.2c-.4-1.2-1.5-2-2.8-2-1.3 0-2.4.8-2.8 2H6.4v-4c0-.6-.4-1-1-1s-1 .4-1 1v5c0 .6.4 1 1 1h3.2c.4 1.2 1.5 2 2.8 2 1.3 0 2.4-.8 2.8-2h7.4c.4 1.2 1.5 2 2.8 2 1.3 0 2.4-.8 2.8-2h2.2c.6 0 1-.4 1-1v-7c0-.2 0-.4-.1-.5ZM9.4 16c-2.8 0-5-2.2-5-5s2.2-5 5-5 5 2.2 5 5-2.2 5-5 5Zm18.2 1h-3.2v-3h1.4l1.8 3Zm-16.2 9c-.6 0-1-.4-1-1s.4-1 1-1 1 .4 1 1-.4 1-1 1Zm13 0c-.6 0-1-.4-1-1s.4-1 1-1 1 .4 1 1-.4 1-1 1Zm2.8-2c-.4-1.2-1.5-2-2.8-2-1.3 0-2.4.8-2.8 2h-1.2V14h2v4c0 .6.4 1 1 1h5v5h-1.2Z" fill="#0B1A48"/><path d="M10.4 10.6V8c0-.6-.4-1-1-1s-1 .4-1 1v3c0 .3.1.5.3.7l2 2c.2.2.5.3.7.3.2 0 .5-.1.7-.3.4-.4.4-1 0-1.4l-1.7-1.7Z" fill="#0B1A48"/></svg>