<svg width="33" height="32" viewBox="0 0 33 32" fill="none" xmlns="http://www.w3.org/2000/svg"><path d="M29.2 10a1 1 0 0 0 1-1V5a3 3 0 0 0-3-3h-22a3 3 0 0 0-3 3v4a1 1 0 0 0 1 1 2 2 0 1 1 0 4 1 1 0 0 0-1 1v4a3 3 0 0 0 3 3h4a1 1 0 0 0 0-2h-4a1 1 0 0 1-1-1v-3.13a4 4 0 0 0 0-7.74V5a1 1 0 0 1 1-1h10v1a1 1 0 0 0 2 0V4h10a1 1 0 0 1 1 1v3.13a4 4 0 0 0 0 7.74V19a1 1 0 0 1-1 1h-4a1 1 0 0 0 0 2h4a3 3 0 0 0 3-3v-4a1 1 0 0 0-1-1 2 2 0 0 1 0-4Z" fill="#0B1A48"/><path d="M16.2 12a1 1 0 0 0 1-1V9a1 1 0 1 0-2 0v2a1 1 0 0 0 1 1Zm-1 5a1 1 0 0 0 2 0v-2a1 1 0 1 0-2 0v2Z" fill="#0B1A48"/><path d="M20.2 24a3 3 0 0 0-2.31 1.11l-.52-.87 4.68-7.72a1 1 0 0 0-1.7-1l-4.15 6.79-4.15-6.83a1 1 0 1 0-1.7 1l4.68 7.72-.52.87a3 3 0 1 0-.05 3.93l.29-.39 1.45-2.44 1.45 2.39.29.39A3 3 0 0 0 20.2 30a3 3 0 0 0 0-6Zm-8 4a1 1 0 1 1 0-2 1 1 0 0 1 0 2Zm8 0a1 1 0 1 1 0-2 1 1 0 0 1 0 2Z" fill="#0B1A48"/></svg>