<svg width="33" height="32" viewBox="0 0 33 32" fill="none" xmlns="http://www.w3.org/2000/svg"><path d="M27.8 8h-1.56a3.909 3.909 0 0 0 .56-2 4 4 0 0 0-4-4 7 7 0 0 0-6 3.41 7 7 0 0 0-6-3.41 4 4 0 0 0-4 4 3.91 3.91 0 0 0 .56 2H5.8a3 3 0 0 0-3 3v4a1 1 0 0 0 1 1h1v11a3 3 0 0 0 3 3h18a3 3 0 0 0 3-3V16h1a1 1 0 0 0 1-1v-4a3 3 0 0 0-3-3Zm-5-4a2 2 0 1 1 0 4h-4.9a5 5 0 0 1 4.9-4Zm-8 6h4v18h-4V10Zm-6-4a2 2 0 0 1 2-2 5 5 0 0 1 4.9 4h-4.9a2 2 0 0 1-2-2Zm-4 5a1 1 0 0 1 1-1h7v4h-8v-3Zm2 16V16h6v12h-5a1 1 0 0 1-1-1Zm20 0a1 1 0 0 1-1 1h-5V16h6v11Zm2-13h-8v-4h7a1 1 0 0 1 1 1v3Z" fill="#0B1A48"/></svg>