<svg width="33" height="32" viewBox="0 0 33 32" fill="none" xmlns="http://www.w3.org/2000/svg"><path d="M21.6 24h-17V5a1 1 0 0 1 1-1h14a1 1 0 0 1 1 1 1 1 0 1 0 2 0 3 3 0 0 0-3-3h-14a3 3 0 0 0-3 3v22a3 3 0 0 0 3 3h14a3 3 0 0 0 3-3v-2a1 1 0 0 0-1-1Zm-1 3a1 1 0 0 1-1 1h-14a1 1 0 0 1-1-1v-1h16v1Z" fill="#0B1A48"/><path d="M27.6 8h-14a3 3 0 0 0-3 3v8a3 3 0 0 0 3 3h14a3 3 0 0 0 3-3v-8a3 3 0 0 0-3-3Zm-14 2h14a1 1 0 0 1 1 1v1h-16v-1a1 1 0 0 1 1-1Zm14 10h-14a1 1 0 0 1-1-1v-5h16v5a1 1 0 0 1-1 1Z" fill="#0B1A48"/><path d="M25.6 16h-4a1 1 0 0 0 0 2h4a1 1 0 0 0 0-2Z" fill="#0B1A48"/></svg>