<svg xmlns="http://www.w3.org/2000/svg" xmlns:xlink="http://www.w3.org/1999/xlink" style="width: 0; height: 0; visibility: hidden; position: absolute;" aria-hidden="true"><symbol  viewBox='0 0 1024 1024' fill='#ffffff' id='cart'>
    <path d="M340.07 307.354h412.468a84.89 84.89 0 0 1 81.305 109.414L794.83 546.253c-10.855 35.84-43.879 60.416-81.306 60.416H379.802l3.584 27.136c1.843 14.029 13.824 24.576 28.057 24.576h368.128a28.314 28.314 0 1 1 0 56.576H411.443a84.89 84.89 0 0 1-84.173-73.728l-50.534-380.826a28.314 28.314 0 0 0-28.058-24.576h-41.164a28.314 28.314 0 1 1 0-56.627h41.164c42.599 0 78.592 31.54 84.173 73.728l7.22 54.426zm7.527 56.627 24.678 186.06h341.248c12.493 0 23.501-8.191 27.085-20.121l39.014-129.485a28.314 28.314 0 0 0-27.084-36.454H347.546zm23.347 434.176c0-25.754 21.402-46.643 47.872-46.643 26.42 0 47.872 20.89 47.872 46.592a47.258 47.258 0 0 1-47.872 46.694 47.258 47.258 0 0 1-47.872-46.643zm289.997 0c0-25.754 21.453-46.643 47.872-46.643 26.47 0 47.872 20.89 47.872 46.592a47.258 47.258 0 0 1-47.872 46.694 47.258 47.258 0 0 1-47.872-46.643z"></path>
  </symbol><symbol  viewBox='0 0 48 48' id='footer-icon'>
    <path d="M24 3C14.1 3 6 11.1 6 21v10.5c0 2.55 1.95 4.5 4.5 4.5h6c.9 0 1.5-.6 1.5-1.5v-12c0-.9-.6-1.5-1.5-1.5H9c0-8.25 6.75-15 15-15s15 6.75 15 15h-7.5c-.9 0-1.5.6-1.5 1.5v12c0 .9.6 1.5 1.5 1.5h6c.45 0 1.05-.15 1.5-.3v1.8c0 2.55-1.95 4.5-4.5 4.5H24c-.9 0-1.5.6-1.5 1.5S23.1 45 24 45h10.5c4.2 0 7.5-3.3 7.5-7.5V21c0-9.9-8.1-18-18-18Zm-9 21v9h-4.5c-.9 0-1.5-.6-1.5-1.5V24h6Zm22.5 9H33v-9h6v7.5c0 .9-.6 1.5-1.5 1.5Z" fill="#2A27E9"></path>
  </symbol><symbol fill='none' viewBox='0 0 24 24' id='header-icon-computers'>
    <path d="M2.75 6A2.25 2.25 0 0 1 5 3.75h14A2.25 2.25 0 0 1 21.25 6v11.25H2.75V6Z" stroke="#0B1A48" stroke-width="1.5"></path><path stroke="#0B1A48" stroke-width="1.5" stroke-linecap="round" d="M.75 20.25h22.5"></path><circle cx="12" cy="7" r="1" fill="#0B1A48"></circle>
  </symbol><symbol fill='none' viewBox='0 0 24 24' id='header-icon-gaming'>
    <path d="M12.77 5H8.041A4.755 4.755 0 0 0 3.33 9.12l-.91 6.766a2.748 2.748 0 0 0 5.238 1.472l.624-1.42M12.77 5h3.22c2.267 0 4.21 1.62 4.617 3.85l1.345 7.361a2.364 2.364 0 0 1-4.524 1.295l-.62-1.569" stroke="#0B1A48" stroke-width="1.5"></path><circle cx="9" cy="14" r="2" stroke="#0B1A48" stroke-width="1.5"></circle><circle cx="16" cy="14" r="2" stroke="#0B1A48" stroke-width="1.5"></circle>
  </symbol><symbol fill='none' viewBox='0 0 24 24' id='header-icon-phones'>
    <ellipse cx="12" cy="18.6" rx="1" ry="1.1" fill="#0B1A48"></ellipse><rect x="6.75" y="1.75" width="10.5" height="20.5" rx="2.25" stroke="#0B1A48" stroke-width="1.5"></rect><path stroke="#0B1A48" stroke-width="1.5" stroke-linecap="round" d="M10.75 3.55h2.5"></path>
  </symbol><symbol fill='none' viewBox='0 0 24 24' id='header-icon-tablets'>
    <path d="M5 5.75h14A2.25 2.25 0 0 1 21.25 8v9A2.25 2.25 0 0 1 19 19.25H5A2.25 2.25 0 0 1 2.75 17V8A2.25 2.25 0 0 1 5 5.75Z" stroke="#0B1A48" stroke-width="1.5"></path><circle cx="12" cy="16" r="1" fill="#0B1A48"></circle>
  </symbol><symbol fill='none' viewBox='0 0 24 24' id='header-icon-tv'>
    <path d="M1.75 7A2.25 2.25 0 0 1 4 4.75h16A2.25 2.25 0 0 1 22.25 7v9.4A2.25 2.25 0 0 1 20 18.65H4a2.25 2.25 0 0 1-2.25-2.25V7Z" stroke="#0B1A48" stroke-width="1.5"></path><path stroke="#0B1A48" stroke-width="1.5" stroke-linecap="round" d="M17.25 19.45h-9.5"></path>
  </symbol><symbol  viewBox='0 0 24 24' id='header-icon-view'>
    <circle fill='none' cx="7.154" cy="7.154" r="2.154" stroke="#0B1A48" stroke-width="1.5"></circle><circle fill='none' cx="7.154" cy="16.769" r="2.154" stroke="#0B1A48" stroke-width="1.5"></circle><circle fill='none' cx="16.846" cy="7.154" r="2.154" stroke="#0B1A48" stroke-width="1.5"></circle><circle fill='none' cx="16.846" cy="16.769" r="2.154" stroke="#0B1A48" stroke-width="1.5"></circle>
  </symbol><symbol fill='none' viewBox='0 0 24 24' id='header-icon-watches'>
    <rect x="5.75" y="5.75" width="12.5" height="12.5" rx="6.25" stroke="#0B1A48" stroke-width="1.5"></rect><rect x="18" y="10" width="2" height="3" rx="1" fill="#0B1A48"></rect><path d="m9 18 .715 4.169A1 1 0 0 0 10.7 23h2.6a1 1 0 0 0 .985-.831L15 18M9 6l.715-4.169A1 1 0 0 1 10.7 1h2.6a1 1 0 0 1 .985.831L15 6" stroke="#0B1A48" stroke-width="1.5" stroke-linecap="square"></path>
  </symbol><symbol fill='none' viewBox='0 0 24 24' id='login'>
    <circle cx="12.048" cy="8.19" r="5.44" stroke="#2A27E9" stroke-width="1.5" stroke-linecap="round"></circle><path d="M12.048 14c-4.278 0-7.862 2.812-8.805 6.59-.268 1.072.652 1.981 1.757 1.981h14.095c1.105 0 2.025-.909 1.758-1.98C19.909 16.81 16.325 14 12.047 14Z" stroke="#2A27E9" stroke-width="1.5" stroke-linecap="round"></path>
  </symbol><symbol  viewBox='0 0 127 38' id='logo'>
    <rect y="5.5" width="47" height="31" rx="5" fill="#2A27E9"></rect><path d="M14.36 32.884c-1.344 0-2.57-.277-3.68-.832a5.97 5.97 0 0 1-2.528-2.4l.416-.672v3.52H5.112V8.276h3.616v10.496l-.576-.832a6.675 6.675 0 0 1 2.56-2.304c1.067-.555 2.283-.832 3.648-.832 1.643 0 3.115.395 4.416 1.184a8.371 8.371 0 0 1 3.104 3.232c.768 1.365 1.152 2.901 1.152 4.608 0 1.707-.384 3.243-1.152 4.608a8.69 8.69 0 0 1-3.072 3.264c-1.301.79-2.784 1.184-4.448 1.184Zm-.352-3.36c1.024 0 1.93-.245 2.72-.736a5.132 5.132 0 0 0 1.856-2.016c.47-.875.704-1.856.704-2.944 0-1.088-.235-2.059-.704-2.912a5.132 5.132 0 0 0-1.856-2.016c-.79-.49-1.696-.736-2.72-.736-1.003 0-1.91.245-2.72.736A5.372 5.372 0 0 0 9.4 20.916c-.448.853-.672 1.824-.672 2.912 0 1.088.224 2.07.672 2.944a5.372 5.372 0 0 0 1.888 2.016c.81.49 1.717.736 2.72.736Zm19.39 3.36c-1.729 0-3.265-.395-4.609-1.184a8.608 8.608 0 0 1-3.104-3.264c-.746-1.387-1.12-2.933-1.12-4.64 0-1.75.374-3.296 1.12-4.64.768-1.344 1.793-2.4 3.073-3.168 1.28-.79 2.73-1.184 4.351-1.184 1.302 0 2.465.224 3.488.672a7.39 7.39 0 0 1 2.593 1.856 7.828 7.828 0 0 1 1.6 2.656 8.87 8.87 0 0 1 .575 3.2c0 .277-.01.565-.032.864a4.855 4.855 0 0 1-.127.832H27.413v-2.88h11.744l-1.727 1.312c.213-1.045.138-1.973-.224-2.784a4.128 4.128 0 0 0-1.6-1.952c-.705-.49-1.537-.736-2.497-.736s-1.813.245-2.56.736c-.746.47-1.322 1.152-1.727 2.048-.406.875-.566 1.941-.48 3.2-.107 1.173.053 2.197.48 3.072.448.875 1.066 1.557 1.855 2.048.811.49 1.729.736 2.752.736 1.046 0 1.931-.235 2.657-.704a5.143 5.143 0 0 0 1.76-1.824l2.944 1.44c-.342.81-.875 1.547-1.6 2.208-.704.64-1.558 1.152-2.56 1.536-.982.363-2.06.544-3.233.544Z" fill="#fff"></path><path d="M58.512 32.884c-1.77 0-3.328-.437-4.672-1.312-1.323-.875-2.25-2.048-2.784-3.52l2.784-1.312c.47.981 1.11 1.76 1.92 2.336a4.73 4.73 0 0 0 2.752.864c.853 0 1.547-.192 2.08-.576.533-.384.8-.907.8-1.568 0-.427-.117-.768-.352-1.024a2.609 2.609 0 0 0-.896-.672 4.822 4.822 0 0 0-1.056-.384l-2.72-.768c-1.493-.427-2.613-1.067-3.36-1.92a4.624 4.624 0 0 1-1.088-3.04c0-1.045.267-1.952.8-2.72.533-.79 1.27-1.397 2.208-1.824.939-.427 1.995-.64 3.168-.64 1.579 0 2.987.395 4.224 1.184 1.237.768 2.112 1.845 2.624 3.232l-2.784 1.312a4.25 4.25 0 0 0-1.632-1.984c-.725-.49-1.547-.736-2.464-.736-.79 0-1.419.192-1.888.576a1.73 1.73 0 0 0-.704 1.44c0 .405.107.747.32 1.024.213.256.49.47.832.64.341.15.693.277 1.056.384l2.816.832c1.43.405 2.528 1.045 3.296 1.92.768.853 1.152 1.877 1.152 3.072 0 1.024-.277 1.93-.832 2.72-.533.768-1.28 1.376-2.24 1.824-.96.427-2.08.64-3.36.64Zm16.183-.192c-1.813 0-3.221-.512-4.224-1.536-1.003-1.024-1.504-2.464-1.504-4.32v-8.384h-3.04v-3.264h.48c.81 0 1.44-.235 1.888-.704.448-.47.672-1.11.672-1.92V11.22h3.616v3.968h3.936v3.264h-3.936v8.224c0 .597.096 1.11.288 1.536.192.405.501.725.928.96.427.213.981.32 1.664.32.17 0 .363-.01.576-.032.213-.021.416-.043.608-.064V32.5c-.299.043-.63.085-.992.128a8.324 8.324 0 0 1-.96.064Zm12.24.192c-1.664 0-3.19-.395-4.576-1.184a8.945 8.945 0 0 1-3.264-3.232c-.81-1.365-1.216-2.912-1.216-4.64 0-1.75.406-3.296 1.216-4.64a8.7 8.7 0 0 1 3.264-3.2c1.366-.79 2.89-1.184 4.576-1.184 1.707 0 3.232.395 4.576 1.184a8.467 8.467 0 0 1 3.232 3.2c.81 1.344 1.216 2.89 1.216 4.64 0 1.75-.405 3.307-1.216 4.672a8.947 8.947 0 0 1-3.264 3.232c-1.365.768-2.88 1.152-4.544 1.152Zm0-3.36c1.024 0 1.93-.245 2.72-.736a5.132 5.132 0 0 0 1.856-2.016c.47-.875.704-1.856.704-2.944 0-1.088-.234-2.059-.704-2.912a5.132 5.132 0 0 0-1.856-2.016c-.79-.49-1.696-.736-2.72-.736-1.002 0-1.91.245-2.72.736a5.37 5.37 0 0 0-1.888 2.016c-.448.853-.672 1.824-.672 2.912 0 1.088.224 2.07.672 2.944a5.37 5.37 0 0 0 1.888 2.016c.81.49 1.718.736 2.72.736ZM98.21 32.5V15.188h3.456v3.488l-.321-.512c.385-1.13 1.003-1.941 1.857-2.432.853-.512 1.877-.768 3.072-.768h1.056v3.296h-1.504c-1.195 0-2.166.373-2.912 1.12-.726.725-1.088 1.77-1.088 3.136V32.5H98.21Zm18.441.384c-1.728 0-3.264-.395-4.608-1.184a8.615 8.615 0 0 1-3.104-3.264c-.746-1.387-1.12-2.933-1.12-4.64 0-1.75.374-3.296 1.12-4.64.768-1.344 1.792-2.4 3.072-3.168 1.28-.79 2.731-1.184 4.352-1.184 1.302 0 2.464.224 3.488.672a7.39 7.39 0 0 1 2.592 1.856 7.817 7.817 0 0 1 1.6 2.656 8.87 8.87 0 0 1 .576 3.2c0 .277-.01.565-.032.864a4.826 4.826 0 0 1-.128.832h-13.792v-2.88h11.744l-1.728 1.312c.214-1.045.139-1.973-.224-2.784-.341-.832-.874-1.483-1.6-1.952-.704-.49-1.536-.736-2.496-.736s-1.813.245-2.56.736c-.746.47-1.322 1.152-1.728 2.048-.405.875-.565 1.941-.48 3.2-.106 1.173.054 2.197.48 3.072.448.875 1.067 1.557 1.856 2.048.811.49 1.728.736 2.752.736 1.046 0 1.931-.235 2.656-.704a5.135 5.135 0 0 0 1.76-1.824l2.944 1.44c-.341.81-.874 1.547-1.6 2.208-.704.64-1.557 1.152-2.56 1.536-.981.363-2.058.544-3.232.544Z" fill="#2A27E9"></path>
  </symbol><symbol  viewBox='0 0 1024 1024' id='menu'>
    <path fill="#2A27E9" d="M91.948 260.164c-15.413 0-27.986-12.543-27.986-27.98 0-15.443 12.573-27.986 27.986-27.986h839.5c15.466 0 27.986 12.543 27.986 27.986 0 15.437-12.514 27.98-27.986 27.98h-839.5zm0 279.836c-15.413 0-27.986-12.568-27.986-27.982 0-15.441 12.573-27.985 27.986-27.985h839.5c15.466 0 27.986 12.544 27.986 27.985 0 15.414-12.514 27.982-27.986 27.982h-839.5zm0 279.836c-15.413 0-27.986-12.567-27.986-27.98 0-15.414 12.573-27.987 27.986-27.987h839.5c15.466 0 27.986 12.572 27.986 27.987 0 15.413-12.514 27.98-27.986 27.98h-839.5zm0 0"></path>
  </symbol><symbol  viewBox='0 0 33 32' id='quality-goods-icon-gifts'>
    <path d="M27.8 8h-1.56a3.909 3.909 0 0 0 .56-2 4 4 0 0 0-4-4 7 7 0 0 0-6 3.41 7 7 0 0 0-6-3.41 4 4 0 0 0-4 4 3.91 3.91 0 0 0 .56 2H5.8a3 3 0 0 0-3 3v4a1 1 0 0 0 1 1h1v11a3 3 0 0 0 3 3h18a3 3 0 0 0 3-3V16h1a1 1 0 0 0 1-1v-4a3 3 0 0 0-3-3Zm-5-4a2 2 0 1 1 0 4h-4.9a5 5 0 0 1 4.9-4Zm-8 6h4v18h-4V10Zm-6-4a2 2 0 0 1 2-2 5 5 0 0 1 4.9 4h-4.9a2 2 0 0 1-2-2Zm-4 5a1 1 0 0 1 1-1h7v4h-8v-3Zm2 16V16h6v12h-5a1 1 0 0 1-1-1Zm20 0a1 1 0 0 1-1 1h-5V16h6v11Zm2-13h-8v-4h7a1 1 0 0 1 1 1v3Z" fill="#0B1A48"></path>
  </symbol><symbol  viewBox='0 0 33 32' id='quality-goods-icon-promotions'>
    <path d="M29.2 10a1 1 0 0 0 1-1V5a3 3 0 0 0-3-3h-22a3 3 0 0 0-3 3v4a1 1 0 0 0 1 1 2 2 0 1 1 0 4 1 1 0 0 0-1 1v4a3 3 0 0 0 3 3h4a1 1 0 0 0 0-2h-4a1 1 0 0 1-1-1v-3.13a4 4 0 0 0 0-7.74V5a1 1 0 0 1 1-1h10v1a1 1 0 0 0 2 0V4h10a1 1 0 0 1 1 1v3.13a4 4 0 0 0 0 7.74V19a1 1 0 0 1-1 1h-4a1 1 0 0 0 0 2h4a3 3 0 0 0 3-3v-4a1 1 0 0 0-1-1 2 2 0 0 1 0-4Z" fill="#0B1A48"></path><path d="M16.2 12a1 1 0 0 0 1-1V9a1 1 0 1 0-2 0v2a1 1 0 0 0 1 1Zm-1 5a1 1 0 0 0 2 0v-2a1 1 0 1 0-2 0v2Z" fill="#0B1A48"></path><path d="M20.2 24a3 3 0 0 0-2.31 1.11l-.52-.87 4.68-7.72a1 1 0 0 0-1.7-1l-4.15 6.79-4.15-6.83a1 1 0 1 0-1.7 1l4.68 7.72-.52.87a3 3 0 1 0-.05 3.93l.29-.39 1.45-2.44 1.45 2.39.29.39A3 3 0 0 0 20.2 30a3 3 0 0 0 0-6Zm-8 4a1 1 0 1 1 0-2 1 1 0 0 1 0 2Zm8 0a1 1 0 1 1 0-2 1 1 0 0 1 0 2Z" fill="#0B1A48"></path>
  </symbol><symbol  viewBox='0 0 33 32' id='quality-goods-icon-returns'>
    <path d="m30.3 17.5-3-5c-.2-.3-.5-.5-.9-.5h-6V9c0-.6-.4-1-1-1h-3.7c-1.1-2.4-3.5-4-6.3-4-3.9 0-7 3.1-7 7s3.1 7 7 7 7-3.1 7-7c0-.3 0-.7-.1-1h2.1v14h-4.2c-.4-1.2-1.5-2-2.8-2-1.3 0-2.4.8-2.8 2H6.4v-4c0-.6-.4-1-1-1s-1 .4-1 1v5c0 .6.4 1 1 1h3.2c.4 1.2 1.5 2 2.8 2 1.3 0 2.4-.8 2.8-2h7.4c.4 1.2 1.5 2 2.8 2 1.3 0 2.4-.8 2.8-2h2.2c.6 0 1-.4 1-1v-7c0-.2 0-.4-.1-.5ZM9.4 16c-2.8 0-5-2.2-5-5s2.2-5 5-5 5 2.2 5 5-2.2 5-5 5Zm18.2 1h-3.2v-3h1.4l1.8 3Zm-16.2 9c-.6 0-1-.4-1-1s.4-1 1-1 1 .4 1 1-.4 1-1 1Zm13 0c-.6 0-1-.4-1-1s.4-1 1-1 1 .4 1 1-.4 1-1 1Zm2.8-2c-.4-1.2-1.5-2-2.8-2-1.3 0-2.4.8-2.8 2h-1.2V14h2v4c0 .6.4 1 1 1h5v5h-1.2Z" fill="#0B1A48"></path><path d="M10.4 10.6V8c0-.6-.4-1-1-1s-1 .4-1 1v3c0 .3.1.5.3.7l2 2c.2.2.5.3.7.3.2 0 .5-.1.7-.3.4-.4.4-1 0-1.4l-1.7-1.7Z" fill="#0B1A48"></path>
  </symbol><symbol  viewBox='0 0 33 32' id='quality-goods-icon-secure'>
    <path d="M21.6 24h-17V5a1 1 0 0 1 1-1h14a1 1 0 0 1 1 1 1 1 0 1 0 2 0 3 3 0 0 0-3-3h-14a3 3 0 0 0-3 3v22a3 3 0 0 0 3 3h14a3 3 0 0 0 3-3v-2a1 1 0 0 0-1-1Zm-1 3a1 1 0 0 1-1 1h-14a1 1 0 0 1-1-1v-1h16v1Z" fill="#0B1A48"></path><path d="M27.6 8h-14a3 3 0 0 0-3 3v8a3 3 0 0 0 3 3h14a3 3 0 0 0 3-3v-8a3 3 0 0 0-3-3Zm-14 2h14a1 1 0 0 1 1 1v1h-16v-1a1 1 0 0 1 1-1Zm14 10h-14a1 1 0 0 1-1-1v-5h16v5a1 1 0 0 1-1 1Z" fill="#0B1A48"></path><path d="M25.6 16h-4a1 1 0 0 0 0 2h4a1 1 0 0 0 0-2Z" fill="#0B1A48"></path>
  </symbol><symbol  viewBox='0 0 32 32' id='quality-goods-icon-shipping'>
    <path d="M24.29 19.29 21 22.59l-1.29-1.3a1.004 1.004 0 1 0-1.42 1.42l2 2a.999.999 0 0 0 1.42 0l4-4a1.005 1.005 0 0 0-1.42-1.42Z" fill="#0B1A48"></path><path d="M22 14a8 8 0 1 0 0 16.001A8 8 0 0 0 22 14Zm0 14a6 6 0 1 1 0-12 6 6 0 0 1 0 12Z" fill="#0B1A48"></path><path d="M26 2H6a4 4 0 0 0-4 4v20a4 4 0 0 0 4 4h8a1 1 0 0 0 0-2H6a2 2 0 0 1-2-2V6a2 2 0 0 1 2-2h5v7a1 1 0 0 0 .62.92 1 1 0 0 0 1.09-.21l1.29-1.3 1.29 1.3a1.002 1.002 0 0 0 1.42 0l1.29-1.3 1.29 1.3A1 1 0 0 0 20 12a.84.84 0 0 0 .38-.08A1 1 0 0 0 21 11V4h5a2 2 0 0 1 2 2v8a1 1 0 0 0 2 0V6a4 4 0 0 0-4-4Zm-7 6.59-.29-.3a1 1 0 0 0-1.42 0L16 9.59l-1.29-1.3a1 1 0 0 0-1.42 0l-.29.3V4h6v4.59Z" fill="#0B1A48"></path>
  </symbol><symbol fill='none' viewBox='0 0 24 26' id='search'>
    <circle cx="12" cy="12" r="9.25" stroke="#2A27E9" stroke-width="1.5"></circle><path stroke="#2A27E9" stroke-width="1.5" d="m17.918 18.489 4.749 4.749"></path>
  </symbol><symbol  viewBox='0 0 1024 1024' id='star'>
    <path d="M798.804 953.41 511.95 802.572 225.097 953.41l54.712-319.405L47.864 407.822l320.685-46.635L511.951 70.591 655.4 361.187l320.735 46.635-232.043 226.183 54.71 319.405zm-698.05-528.45 205.5 200.477L257.795 908.4 511.95 774.749l254.154 133.65-48.457-282.962 205.6-200.477-284.194-41.317L511.95 126.189 384.898 383.692 100.753 424.96z"></path>
  </symbol><symbol fill='none' viewBox='0 0 24 24' id='store'>
    <path d="M16 6a4 4 0 0 0-8 0m-5.25.75h18.5V18A3.25 3.25 0 0 1 18 21.25H6A3.25 3.25 0 0 1 2.75 18V6.75Z" stroke="#2A27E9" stroke-width="1.5"></path><circle cx="8" cy="11" r="1" fill="#2A27E9"></circle><circle cx="16" cy="11" r="1" fill="#2A27E9"></circle>
  </symbol><symbol  viewBox='0 0 1024 1024' id='wishlist'>
    <path fill="#2A27E9" d="m512 898.56-9.813-4.693C485.547 884.907 85.333 679.68 85.333 384c0-115.627 53.76-202.667 147.2-239.36C325.547 108.373 435.2 132.267 512 203.52c76.8-71.253 186.88-95.147 279.467-58.88 93.44 36.693 147.2 123.733 147.2 239.36 0 295.68-400.214 501.333-416.854 509.867L512 898.56zM322.987 170.24c-25.6 0-51.2 4.693-75.094 14.08C171.52 214.187 128 286.72 128 384c0 245.333 323.413 433.493 384 466.347C572.587 817.493 896 629.333 896 384c0-96.853-43.52-169.813-119.893-199.68-83.2-32.427-183.04-6.827-248.32 64L512 265.387l-15.787-17.067c-46.506-50.347-110.08-78.08-173.226-78.08z"></path>
  </symbol></svg>