<svg class="svg-icon" style="width:1em;height:1em;vertical-align:middle;fill:currentColor;overflow:hidden" viewBox="0 0 1024 1024" xmlns="http://www.w3.org/2000/svg"><path d="m512 898.56-9.813-4.693C485.547 884.907 85.333 679.68 85.333 384c0-115.627 53.76-202.667 147.2-239.36C325.547 108.373 435.2 132.267 512 203.52c76.8-71.253 186.88-95.147 279.467-58.88 93.44 36.693 147.2 123.733 147.2 239.36 0 295.68-400.214 501.333-416.854 509.867L512 898.56zM322.987 170.24c-25.6 0-51.2 4.693-75.094 14.08C171.52 214.187 128 286.72 128 384c0 245.333 323.413 433.493 384 466.347C572.587 817.493 896 629.333 896 384c0-96.853-43.52-169.813-119.893-199.68-83.2-32.427-183.04-6.827-248.32 64L512 265.387l-15.787-17.067c-46.506-50.347-110.08-78.08-173.226-78.08z"/></svg>